<svg width="153" height="153" viewBox="0 0 153 153" fill="none" xmlns="http://www.w3.org/2000/svg">
<circle cx="76.0534" cy="76.8053" r="62.8541" fill="black"/>
<path d="M121.107 48.5173L121.549 49.2139L118.265 51.2972C117.968 51.4857 117.676 51.588 117.391 51.6043C117.106 51.6222 116.841 51.5609 116.595 51.4206C116.351 51.2793 116.139 51.067 115.959 50.7835C115.794 50.5226 115.693 50.258 115.656 49.9897C115.62 49.7229 115.654 49.4717 115.758 49.2363C115.865 49.0015 116.049 48.8013 116.31 48.6358L116.75 49.3302C116.622 49.4115 116.53 49.5112 116.474 49.6293C116.419 49.7489 116.398 49.8775 116.411 50.015C116.427 50.1531 116.477 50.29 116.564 50.4257C116.657 50.5734 116.768 50.679 116.894 50.7423C117.024 50.8062 117.167 50.8265 117.323 50.8033C117.48 50.7801 117.646 50.7125 117.823 50.6006L121.107 48.5173Z" fill="white"/>
<path d="M121.616 57.8139L123.834 56.8767L124.147 57.6169L120.357 59.2181L120.051 58.4927L120.707 58.2154L120.69 58.1759C120.451 58.1742 120.224 58.1057 120.007 57.9702C119.793 57.8357 119.626 57.6261 119.506 57.3416C119.403 57.0982 119.366 56.8601 119.393 56.6274C119.423 56.3957 119.522 56.1815 119.689 55.985C119.857 55.79 120.097 55.6266 120.409 55.4945L122.82 54.4761L123.132 55.2138L120.81 56.1947C120.552 56.3038 120.376 56.4622 120.284 56.67C120.191 56.8777 120.193 57.0959 120.29 57.3245C120.348 57.4627 120.441 57.5854 120.568 57.6928C120.695 57.8017 120.848 57.8719 121.026 57.9033C121.205 57.9364 121.401 57.9065 121.616 57.8139Z" fill="white"/>
<path d="M124.411 63.8987L122.031 64.4499L121.85 63.6697L125.858 62.7415L126.032 63.4904L125.379 63.6414L125.391 63.691C125.624 63.7341 125.828 63.839 126.002 64.0057C126.177 64.1742 126.299 64.409 126.369 64.7099C126.432 64.983 126.43 65.2355 126.363 65.4674C126.297 65.6988 126.166 65.8971 125.967 66.0621C125.769 66.2272 125.505 66.348 125.174 66.4245L122.625 67.0149L122.444 66.2347L124.9 65.666C125.19 65.5988 125.4 65.4705 125.528 65.2813C125.658 65.0917 125.693 64.8647 125.632 64.6003C125.59 64.4193 125.513 64.2675 125.402 64.1447C125.292 64.0237 125.151 63.9398 124.981 63.8931C124.813 63.8477 124.623 63.8496 124.411 63.8987Z" fill="white"/>
<path d="M127.545 73.2486L126.904 73.2969L126.735 71.056L127.376 71.0077L127.545 73.2486ZM128.404 71.5345L128.465 72.3331L124.584 72.6257C124.429 72.6374 124.314 72.6693 124.239 72.7215C124.166 72.7736 124.118 72.8372 124.095 72.9124C124.074 72.9892 124.067 73.0712 124.073 73.1584C124.078 73.2225 124.087 73.2783 124.099 73.3257C124.112 73.3731 124.122 73.41 124.129 73.4363L123.48 73.6302C123.459 73.5853 123.436 73.5207 123.412 73.4366C123.386 73.3526 123.367 73.2466 123.356 73.1185C123.336 72.9087 123.359 72.71 123.424 72.5225C123.488 72.335 123.598 72.1789 123.754 72.0544C123.909 71.9299 124.111 71.8583 124.358 71.8396L128.404 71.5345Z" fill="white"/>
<path d="M123.305 79.5847C123.335 79.2002 123.449 78.8714 123.647 78.5984C123.846 78.3253 124.11 78.1218 124.439 77.9879C124.768 77.8539 125.144 77.8033 125.568 77.836C125.994 77.8688 126.36 77.9768 126.666 78.1598C126.972 78.3429 127.203 78.5845 127.357 78.8848C127.511 79.185 127.573 79.5274 127.543 79.912C127.514 80.2965 127.4 80.6253 127.201 80.8983C127.003 81.1714 126.738 81.3748 126.407 81.5086C126.076 81.6425 125.698 81.693 125.273 81.6601C124.849 81.6274 124.485 81.5196 124.18 81.3367C123.876 81.1537 123.646 80.9122 123.492 80.6119C123.338 80.3117 123.276 79.9693 123.305 79.5847ZM123.975 79.6392C123.956 79.8884 124.006 80.1 124.125 80.274C124.244 80.4479 124.41 80.5825 124.623 80.6778C124.836 80.7748 125.074 80.8335 125.338 80.8538C125.599 80.874 125.843 80.8525 126.068 80.7893C126.295 80.7281 126.481 80.6207 126.627 80.4672C126.774 80.3137 126.856 80.1123 126.876 79.8631C126.895 79.6121 126.844 79.3986 126.724 79.2227C126.603 79.0486 126.435 78.913 126.22 78.8158C126.007 78.7206 125.77 78.6629 125.508 78.6427C125.245 78.6223 125.001 78.6429 124.776 78.7043C124.55 78.7675 124.366 78.8759 124.221 79.0295C124.077 79.1849 123.995 79.3881 123.975 79.6392Z" fill="white"/>
<path d="M124.808 89.6425L124.858 88.907C124.955 88.8998 125.052 88.8743 125.15 88.8303C125.247 88.7881 125.334 88.7196 125.413 88.625C125.492 88.5304 125.551 88.4025 125.591 88.2413C125.645 88.0212 125.641 87.8253 125.579 87.6535C125.518 87.4821 125.411 87.3773 125.257 87.3392C125.123 87.3061 125.004 87.3289 124.898 87.4076C124.792 87.4862 124.685 87.6292 124.579 87.8364L124.276 88.4348C124.1 88.7812 123.902 89.0227 123.68 89.1592C123.459 89.2957 123.207 89.329 122.925 89.2591C122.685 89.1999 122.489 89.0778 122.336 88.8928C122.185 88.7099 122.087 88.4824 122.042 88.2101C121.997 87.9395 122.014 87.643 122.094 87.3206C122.204 86.8734 122.39 86.5321 122.651 86.2968C122.913 86.0619 123.229 85.9561 123.598 85.9795L123.527 86.7592C123.319 86.7575 123.147 86.8171 123.011 86.9378C122.876 87.0589 122.779 87.2365 122.722 87.4705C122.658 87.7253 122.661 87.942 122.729 88.1207C122.799 88.2999 122.911 88.4085 123.065 88.4467C123.19 88.4776 123.306 88.4568 123.414 88.3842C123.522 88.3133 123.621 88.1879 123.712 88.008L124.027 87.3687C124.204 87.017 124.408 86.7749 124.637 86.6423C124.866 86.5114 125.123 86.4811 125.407 86.5515C125.643 86.6098 125.833 86.7267 125.977 86.9022C126.122 87.0777 126.214 87.2938 126.256 87.5505C126.299 87.8077 126.283 88.0862 126.209 88.3861C126.102 88.8177 125.924 89.1342 125.676 89.3358C125.429 89.5377 125.14 89.64 124.808 89.6425Z" fill="white"/>
<path d="M119.916 103.281L117.089 99.9402L117.516 99.1967L121.828 99.9472L121.4 100.693L118.136 100.022L118.114 100.059L120.343 102.535L119.916 103.281Z" fill="white"/>
<path d="M113.272 105.369C113.436 105.167 113.622 105.014 113.829 104.91C114.038 104.808 114.253 104.768 114.475 104.788C114.696 104.811 114.911 104.907 115.121 105.076C115.302 105.222 115.422 105.377 115.483 105.541C115.543 105.704 115.56 105.873 115.532 106.046C115.505 106.219 115.45 106.392 115.367 106.566C115.284 106.74 115.19 106.91 115.086 107.076C114.953 107.285 114.845 107.456 114.763 107.586C114.681 107.718 114.636 107.824 114.625 107.906C114.615 107.987 114.647 108.058 114.722 108.118L114.737 108.13C114.918 108.277 115.101 108.339 115.284 108.318C115.466 108.297 115.638 108.186 115.801 107.985C115.97 107.775 116.058 107.572 116.062 107.376C116.067 107.183 116.032 107.017 115.956 106.881L116.563 106.403C116.701 106.63 116.776 106.858 116.788 107.088C116.8 107.32 116.762 107.546 116.675 107.764C116.589 107.984 116.468 108.191 116.312 108.384C116.209 108.511 116.084 108.635 115.938 108.753C115.792 108.874 115.629 108.965 115.449 109.026C115.267 109.088 115.071 109.1 114.858 109.062C114.647 109.024 114.425 108.911 114.192 108.723L112.067 107.006L112.559 106.397L112.996 106.751L113.016 106.726C112.968 106.621 112.938 106.496 112.925 106.353C112.913 106.209 112.932 106.054 112.982 105.886C113.033 105.718 113.13 105.546 113.272 105.369ZM113.663 105.909C113.524 106.081 113.439 106.256 113.408 106.433C113.376 106.612 113.389 106.777 113.447 106.93C113.506 107.085 113.598 107.213 113.724 107.315L114.137 107.649C114.133 107.609 114.147 107.549 114.179 107.469C114.211 107.392 114.253 107.308 114.304 107.216C114.357 107.125 114.409 107.037 114.459 106.952C114.511 106.868 114.554 106.797 114.589 106.74C114.671 106.607 114.735 106.476 114.78 106.346C114.823 106.219 114.835 106.097 114.815 105.983C114.796 105.871 114.731 105.77 114.619 105.68C114.465 105.555 114.303 105.518 114.131 105.568C113.962 105.619 113.805 105.732 113.663 105.909Z" fill="white"/>
<path d="M109.192 110.135L111.861 113.267L111.275 113.765L110.841 113.256L110.802 113.289C110.884 113.517 110.892 113.742 110.826 113.965C110.762 114.189 110.626 114.389 110.419 114.565C110.21 114.743 109.993 114.844 109.768 114.866C109.542 114.89 109.322 114.845 109.108 114.732L109.076 114.76C109.143 114.991 109.138 115.225 109.059 115.463C108.982 115.703 108.83 115.919 108.605 116.111C108.321 116.353 108.013 116.462 107.682 116.436C107.349 116.412 107.03 116.221 106.725 115.862L104.935 113.762L105.545 113.243L107.286 115.286C107.466 115.498 107.655 115.602 107.851 115.599C108.048 115.595 108.227 115.525 108.387 115.389C108.585 115.22 108.688 115.027 108.693 114.811C108.7 114.596 108.623 114.394 108.461 114.203L106.76 112.207L107.368 111.69L109.141 113.771C109.286 113.941 109.455 114.033 109.649 114.046C109.843 114.059 110.025 113.993 110.195 113.848C110.311 113.75 110.391 113.628 110.437 113.484C110.483 113.342 110.49 113.191 110.458 113.033C110.425 112.876 110.348 112.727 110.228 112.585L108.583 110.655L109.192 110.135Z" fill="white"/>
<path d="M99.7439 117.003C100.08 116.813 100.416 116.725 100.754 116.737C101.091 116.75 101.407 116.856 101.701 117.055C101.996 117.253 102.248 117.538 102.457 117.908C102.666 118.28 102.78 118.644 102.799 119C102.818 119.357 102.745 119.683 102.582 119.978C102.418 120.273 102.168 120.515 101.832 120.705C101.496 120.894 101.16 120.983 100.823 120.97C100.485 120.957 100.169 120.851 99.8735 120.65C99.5781 120.45 99.3255 120.164 99.1158 119.792C98.907 119.422 98.7938 119.06 98.776 118.705C98.7583 118.35 98.8312 118.025 98.9947 117.73C99.1583 117.434 99.408 117.192 99.7439 117.003ZM100.072 117.589C99.8542 117.712 99.7062 117.872 99.6281 118.067C99.5499 118.263 99.5306 118.476 99.57 118.706C99.608 118.937 99.6918 119.167 99.8217 119.397C99.9506 119.626 100.104 119.816 100.282 119.968C100.459 120.122 100.652 120.217 100.861 120.253C101.07 120.289 101.283 120.246 101.501 120.123C101.72 119.999 101.869 119.838 101.948 119.64C102.026 119.443 102.045 119.228 102.006 118.996C101.966 118.766 101.882 118.536 101.753 118.308C101.623 118.078 101.47 117.886 101.294 117.733C101.116 117.582 100.923 117.489 100.715 117.454C100.506 117.421 100.291 117.466 100.072 117.589Z" fill="white"/>
<path d="M92.2271 123.852L92.8656 123.483C92.9258 123.56 93.0012 123.627 93.092 123.683C93.181 123.74 93.2867 123.775 93.409 123.788C93.5314 123.8 93.6706 123.778 93.8267 123.722C94.0399 123.644 94.2005 123.532 94.3084 123.384C94.417 123.239 94.4442 123.091 94.39 122.942C94.3431 122.813 94.2575 122.726 94.1332 122.682C94.0089 122.637 93.831 122.629 93.5996 122.656L92.9341 122.738C92.5484 122.785 92.2372 122.754 92.0005 122.646C91.7638 122.538 91.5958 122.348 91.4966 122.074C91.4125 121.842 91.4048 121.611 91.4733 121.381C91.5407 121.154 91.675 120.945 91.8762 120.757C92.0758 120.568 92.3316 120.418 92.6439 120.304C93.0769 120.147 93.4638 120.111 93.8044 120.197C94.1456 120.284 94.4093 120.487 94.5957 120.807L93.9082 121.182C93.7941 121.009 93.6489 120.899 93.4725 120.853C93.2968 120.808 93.0957 120.827 92.869 120.909C92.6223 120.999 92.4436 121.122 92.3331 121.278C92.2231 121.435 92.1952 121.589 92.2494 121.738C92.2933 121.859 92.3755 121.944 92.4959 121.993C92.6147 122.043 92.7741 122.056 92.9739 122.031L93.6807 121.937C94.0714 121.888 94.3858 121.922 94.6238 122.039C94.8602 122.157 95.0283 122.353 95.1282 122.628C95.211 122.857 95.2197 123.08 95.1543 123.297C95.0888 123.515 94.961 123.712 94.7708 123.889C94.5812 124.068 94.3412 124.21 94.0508 124.316C93.6328 124.467 93.2709 124.496 92.9651 124.402C92.6599 124.309 92.4139 124.126 92.2271 123.852Z" fill="white"/>
<path d="M79.6635 123.072C80.0608 123.045 80.4091 123.111 80.7084 123.27C81.0062 123.432 81.2428 123.667 81.4183 123.975C81.5938 124.283 81.696 124.643 81.7248 125.055C81.7539 125.471 81.7013 125.845 81.5669 126.175C81.4326 126.506 81.2292 126.772 80.9568 126.972C80.6844 127.172 80.3549 127.285 79.9684 127.312C79.6567 127.334 79.3747 127.295 79.1226 127.197C78.8706 127.1 78.6625 126.953 78.4985 126.757C78.3326 126.561 78.2257 126.326 78.1779 126.052L78.9554 125.998C79.0116 126.187 79.1212 126.346 79.2841 126.474C79.4453 126.602 79.6532 126.658 79.9079 126.64C80.1306 126.624 80.3215 126.552 80.4807 126.422C80.6383 126.295 80.7558 126.12 80.8333 125.898C80.911 125.678 80.9396 125.422 80.9192 125.13C80.8982 124.83 80.8347 124.575 80.7287 124.364C80.6226 124.153 80.4826 123.994 80.3085 123.886C80.1328 123.779 79.9317 123.733 79.7055 123.749C79.5541 123.759 79.4189 123.797 79.2998 123.86C79.1792 123.926 79.0806 124.014 79.0043 124.125C78.9261 124.236 78.8753 124.367 78.8518 124.517L78.0743 124.572C78.0842 124.304 78.154 124.061 78.2837 123.843C78.4134 123.624 78.5952 123.447 78.8291 123.311C79.0612 123.174 79.3394 123.095 79.6635 123.072Z" fill="white"/>
<path d="M72.2093 122.99C72.5933 123.027 72.9199 123.147 73.1892 123.351C73.4584 123.554 73.657 123.822 73.7848 124.153C73.9127 124.485 73.9563 124.862 73.9157 125.285C73.8749 125.71 73.7602 126.074 73.5714 126.377C73.3827 126.68 73.1368 126.906 72.8338 127.054C72.5307 127.203 72.1872 127.259 71.8033 127.222C71.4193 127.185 71.0927 127.065 70.8234 126.861C70.5542 126.658 70.3557 126.389 70.228 126.056C70.1004 125.723 70.0569 125.344 70.0977 124.919C70.1383 124.496 70.2529 124.134 70.4414 123.832C70.63 123.531 70.8758 123.306 71.1788 123.158C71.4819 123.009 71.8254 122.954 72.2093 122.99ZM72.1424 123.659C71.8936 123.635 71.6811 123.681 71.505 123.797C71.3288 123.913 71.1911 124.077 71.0919 124.288C70.991 124.499 70.9279 124.736 70.9026 124.999C70.8776 125.26 70.8945 125.504 70.9535 125.73C71.0106 125.958 71.1145 126.147 71.2652 126.296C71.4159 126.445 71.6157 126.531 71.8646 126.555C72.1152 126.579 72.3296 126.532 72.5077 126.415C72.684 126.297 72.8227 126.132 72.9238 125.919C73.023 125.708 73.0852 125.472 73.1102 125.211C73.1355 124.948 73.1195 124.703 73.0623 124.477C73.0033 124.251 72.8983 124.064 72.7474 123.917C72.5947 123.769 72.3931 123.683 72.1424 123.659Z" fill="white"/>
<path d="M64.4874 124.254L65.1339 121.898L65.9062 122.11L64.8173 126.077L64.076 125.874L64.2533 125.228L64.2042 125.215C64.0553 125.4 63.866 125.529 63.6365 125.603C63.4052 125.677 63.1406 125.673 62.8427 125.591C62.5724 125.517 62.3512 125.395 62.1792 125.226C62.0067 125.058 61.895 124.848 61.844 124.595C61.7931 124.342 61.8125 124.052 61.9023 123.725L62.5949 121.201L63.3672 121.413L62.7001 123.844C62.6212 124.131 62.6344 124.377 62.7398 124.58C62.8447 124.784 63.028 124.922 63.2898 124.994C63.4689 125.043 63.6388 125.048 63.7995 125.009C63.9585 124.97 64.0991 124.886 64.2211 124.758C64.341 124.632 64.4297 124.464 64.4874 124.254Z" fill="white"/>
<path d="M54.0968 121.139L54.8096 121.328C54.7981 121.425 54.8048 121.525 54.8295 121.629C54.8526 121.732 54.9031 121.831 54.9811 121.926C55.059 122.021 55.1734 122.104 55.3241 122.174C55.5299 122.269 55.723 122.302 55.9035 122.274C56.0833 122.247 56.2065 122.161 56.2733 122.017C56.331 121.892 56.3313 121.77 56.2742 121.651C56.2171 121.532 56.0968 121.401 55.9135 121.257L55.3834 120.846C55.0766 120.608 54.8772 120.367 54.7852 120.124C54.6931 119.881 54.7082 119.627 54.8305 119.363C54.9339 119.139 55.091 118.97 55.3016 118.855C55.5099 118.741 55.752 118.687 56.0278 118.695C56.3021 118.702 56.5899 118.775 56.8913 118.915C57.3094 119.108 57.6093 119.355 57.7909 119.656C57.9718 119.958 58.0158 120.288 57.9227 120.646L57.1707 120.428C57.2117 120.225 57.1859 120.044 57.0933 119.888C56.9999 119.732 56.8438 119.604 56.6251 119.503C56.3868 119.392 56.1736 119.354 55.9852 119.387C55.7961 119.421 55.6682 119.51 55.6014 119.655C55.5475 119.771 55.5458 119.89 55.5966 120.009C55.6457 120.129 55.7501 120.25 55.9096 120.373L56.4775 120.804C56.7891 121.044 56.9883 121.29 57.075 121.541C57.16 121.791 57.141 122.048 57.0181 122.314C56.9161 122.535 56.7652 122.699 56.5656 122.807C56.3659 122.915 56.1362 122.966 55.8763 122.957C55.6156 122.951 55.3451 122.883 55.0648 122.753C54.6613 122.566 54.3841 122.332 54.2334 122.05C54.0819 121.769 54.0364 121.466 54.0968 121.139Z" fill="white"/>
<path d="M47.7081 118.55L48.0599 118.012L49.9407 119.242L49.5889 119.78L47.7081 118.55ZM48.545 120.275L47.8748 119.837L50.0047 116.58C50.0897 116.45 50.1343 116.339 50.1384 116.248C50.1416 116.158 50.1204 116.081 50.0747 116.018C50.0266 115.954 49.9659 115.898 49.8927 115.85C49.8389 115.815 49.7894 115.788 49.7442 115.769C49.6989 115.75 49.6636 115.736 49.6383 115.726L49.8793 115.093C49.9279 115.103 49.993 115.125 50.0745 115.156C50.157 115.187 50.2525 115.237 50.3611 115.306C50.5394 115.418 50.6833 115.557 50.7927 115.722C50.9021 115.888 50.959 116.07 50.9632 116.269C50.9675 116.468 50.9017 116.671 50.7658 116.879L48.545 120.275Z" fill="white"/>
<path d="M46.5094 112.521L43.8228 115.637L43.2366 115.132L43.6633 114.637L43.6309 114.609C43.4295 114.727 43.2157 114.773 42.9896 114.745C42.7609 114.718 42.5553 114.626 42.3728 114.468C42.3349 114.436 42.2914 114.396 42.2424 114.349C42.192 114.3 42.1536 114.262 42.1274 114.232L42.6276 113.652C42.6461 113.679 42.683 113.724 42.7382 113.786C42.7922 113.849 42.8504 113.907 42.9126 113.961C43.0559 114.085 43.21 114.164 43.3747 114.2C43.5369 114.236 43.6965 114.229 43.8535 114.178C44.0094 114.129 44.1456 114.036 44.2622 113.901L45.9029 111.998L46.5094 112.521Z" fill="white"/>
<path d="M38.969 107.401L37.1381 108.965L36.6162 108.354L39.7445 105.682L40.2559 106.28L39.7142 106.743L39.742 106.776C39.9705 106.705 40.2082 106.702 40.4552 106.765C40.6997 106.829 40.9223 106.978 41.123 107.213C41.2946 107.414 41.4024 107.63 41.4464 107.86C41.4878 108.09 41.4586 108.324 41.3589 108.561C41.2579 108.798 41.0785 109.026 40.8205 109.247L38.8308 110.946L38.3106 110.337L40.2271 108.7C40.4402 108.518 40.5595 108.314 40.5849 108.088C40.6102 107.862 40.5423 107.655 40.3811 107.466C40.2837 107.352 40.1583 107.263 40.0051 107.199C39.8506 107.134 39.6838 107.113 39.5046 107.137C39.3243 107.16 39.1457 107.248 38.969 107.401Z" fill="white"/>
<path d="M37.0021 101.858L33.5336 104.071L33.1029 103.395L36.5714 101.183L37.0021 101.858ZM32.781 104.071C32.8559 104.188 32.8811 104.314 32.8566 104.448C32.8296 104.582 32.7612 104.684 32.6513 104.754C32.5399 104.825 32.4186 104.844 32.2875 104.811C32.154 104.778 32.0497 104.703 31.9748 104.585C31.8999 104.468 31.8759 104.342 31.9029 104.209C31.9274 104.074 31.9954 103.972 32.1068 103.901C32.2167 103.831 32.3384 103.812 32.4719 103.846C32.603 103.878 32.7061 103.954 32.781 104.071Z" fill="white"/>
<path d="M34.5046 97.5505L30.7977 99.3349L30.4619 98.6374L31.0508 98.354L31.0322 98.3153C30.8002 98.3438 30.586 98.3003 30.3897 98.1847C30.1909 98.0683 30.0393 97.9015 29.9348 97.6843C29.9131 97.6393 29.8891 97.5854 29.8629 97.5227C29.8359 97.4584 29.8163 97.4074 29.8041 97.3697L30.4943 97.0374C30.5002 97.0703 30.5162 97.126 30.5421 97.2047C30.5665 97.2841 30.5965 97.3608 30.6321 97.4348C30.7142 97.6054 30.8236 97.74 30.9603 97.8387C31.0946 97.9365 31.2439 97.9935 31.4082 98.0095C31.5708 98.0263 31.7326 97.996 31.8935 97.9186L34.1573 96.8289L34.5046 97.5505Z" fill="white"/>
<path d="M30.2607 84.7253C30.3286 85.1049 30.3009 85.4518 30.1776 85.766C30.0542 86.0801 29.8501 86.3434 29.5652 86.5558C29.2804 86.7683 28.9288 86.9119 28.5104 86.9868C28.0903 87.062 27.709 87.0495 27.3664 86.9494C27.0237 86.8493 26.7401 86.6733 26.5154 86.4215C26.2908 86.1696 26.1444 85.8539 26.0765 85.4742C26.0085 85.0945 26.0362 84.7476 26.1596 84.4335C26.283 84.1194 26.488 83.8559 26.7746 83.6432C27.0612 83.4304 27.4146 83.2865 27.8347 83.2113C28.253 83.1364 28.6326 83.1492 28.9735 83.2496C29.3143 83.35 29.5971 83.5262 29.8218 83.778C30.0464 84.0299 30.1927 84.3456 30.2607 84.7253ZM29.5984 84.8411C29.5544 84.595 29.4529 84.4028 29.2939 84.2643C29.1348 84.1259 28.9403 84.0374 28.7103 83.9987C28.4799 83.9583 28.2347 83.9614 27.9745 84.008C27.7162 84.0542 27.4859 84.1362 27.2839 84.254C27.0798 84.3704 26.9263 84.5212 26.8234 84.7065C26.7205 84.8918 26.6911 85.1075 26.7352 85.3536C26.7795 85.6014 26.8822 85.7953 27.0433 85.9351C27.2041 86.0733 27.4005 86.1624 27.6326 86.2024C27.8627 86.2411 28.1069 86.2373 28.3653 86.191C28.6254 86.1445 28.8567 86.0632 29.059 85.9471C29.2611 85.8293 29.4126 85.678 29.5138 85.493C29.6146 85.3062 29.6428 85.0889 29.5984 84.8411Z" fill="white"/>
<path d="M29.4325 72.8096L25.3554 72.2593L25.4582 71.4975L26.1218 71.5871L26.1286 71.5367C25.9154 71.4214 25.7589 71.2588 25.6593 71.049C25.5579 70.8389 25.5254 70.5994 25.5617 70.3304C25.5985 70.0579 25.693 69.8382 25.8452 69.6714C25.9977 69.5028 26.1914 69.3893 26.4263 69.3309L26.4321 69.2884C26.2275 69.1617 26.075 68.9835 25.9745 68.7537C25.8722 68.5236 25.8409 68.2618 25.8805 67.968C25.9304 67.5982 26.0871 67.3121 26.3504 67.1098C26.614 66.9057 26.9794 66.8352 27.4465 66.8983L30.1805 67.2672L30.0734 68.0609L27.4137 67.702C27.1377 67.6647 26.9276 67.7129 26.7834 67.8466C26.6392 67.9803 26.553 68.1516 26.5249 68.3604C26.49 68.6187 26.5425 68.8303 26.6824 68.9952C26.8206 69.1598 27.0135 69.2588 27.2613 69.2922L29.8599 69.6429L29.7532 70.4339L27.043 70.0682C26.8218 70.0383 26.6347 70.0833 26.4816 70.2032C26.3285 70.3231 26.237 70.4936 26.2071 70.7148C26.1868 70.8652 26.2079 71.0095 26.2703 71.1477C26.3312 71.2838 26.4263 71.4003 26.5556 71.497C26.6851 71.5919 26.8419 71.6518 27.026 71.6767L29.5397 72.0159L29.4325 72.8096Z" fill="white"/>
<path d="M30.4673 59.9883L28.1863 59.2167L28.4438 58.4555L32.3409 59.7739L32.0886 60.5198L31.4137 60.2915L31.4 60.3321C31.5777 60.4921 31.7024 60.6945 31.7742 60.9394C31.8448 61.1819 31.8306 61.4495 31.7317 61.7421C31.647 61.9925 31.517 62.1955 31.3419 62.3511C31.1656 62.5045 30.9497 62.5992 30.6943 62.6353C30.4395 62.6698 30.1514 62.6326 29.83 62.5239L27.3512 61.6854L27.6078 60.9268L29.9953 61.7344C30.2609 61.8242 30.4972 61.8222 30.7043 61.7282C30.9114 61.6343 31.0547 61.4698 31.1342 61.2347C31.1823 61.0926 31.1946 60.9393 31.171 60.7749C31.148 60.6088 31.0804 60.4549 30.9681 60.3132C30.8564 60.1699 30.6894 60.0616 30.4673 59.9883Z" fill="white"/>
<path d="M32.4168 53.5824L34.5624 54.7501L34.1796 55.4535L30.566 53.4869L30.9334 52.8117L31.5216 53.1318L31.5459 53.0871C31.3998 52.8998 31.3169 52.686 31.2973 52.4456C31.2786 52.2037 31.343 51.947 31.4907 51.6757C31.6247 51.4294 31.7938 51.2419 31.998 51.1132C32.2007 50.9836 32.4309 50.9229 32.6888 50.9311C32.9466 50.9392 33.2245 51.0244 33.5225 51.1866L35.821 52.4374L35.4382 53.1409L33.2243 51.9361C32.9624 51.7935 32.7206 51.7504 32.4989 51.8066C32.2757 51.862 32.0992 52.0088 31.9694 52.2472C31.8807 52.4104 31.837 52.5746 31.8384 52.7401C31.8407 52.904 31.89 53.0599 31.9864 53.2079C32.082 53.3534 32.2255 53.4783 32.4168 53.5824Z" fill="white"/>
<path d="M39.3812 47.3606C39.1748 47.6208 38.9241 47.8003 38.6292 47.8991C38.334 47.9955 38.0166 48.0035 37.6768 47.9232C37.3368 47.8404 36.9926 47.6608 36.6443 47.3845C36.296 47.1082 36.044 46.8138 35.8885 46.5013C35.7341 46.1874 35.6721 45.8761 35.7027 45.5676C35.7332 45.259 35.8511 44.9753 36.0563 44.7165C36.215 44.5165 36.3762 44.3822 36.5399 44.3138C36.7033 44.2428 36.8557 44.2087 36.9971 44.2115C37.1396 44.2128 37.2594 44.2212 37.3565 44.2367L37.3865 44.199L35.7895 42.9323L36.2872 42.3049L40.5849 45.7137L40.0989 46.3264L39.5973 45.9286L39.5557 45.9811C39.5943 46.0732 39.6294 46.1899 39.6609 46.3312C39.6936 46.4711 39.6939 46.6286 39.6621 46.8039C39.6302 46.9791 39.5365 47.1647 39.3812 47.3606ZM38.9559 46.7976C39.0991 46.6172 39.1725 46.4269 39.1761 46.227C39.1794 46.0245 39.1213 45.8234 39.0016 45.6237C38.8831 45.4225 38.7105 45.2321 38.4839 45.0523C38.2601 44.8748 38.0387 44.7516 37.8198 44.6828C37.6009 44.614 37.3951 44.6047 37.2027 44.6548C37.0102 44.705 36.8412 44.8217 36.6959 45.005C36.5461 45.1938 36.4702 45.3901 36.4683 45.5937C36.4663 45.7972 36.5245 45.9983 36.6427 46.197C36.762 46.3942 36.928 46.5771 37.1407 46.7458C37.3561 46.9167 37.5754 47.0382 37.7985 47.1103C38.0216 47.1825 38.2335 47.1955 38.4341 47.1495C38.6344 47.101 38.8083 46.9837 38.9559 46.7976Z" fill="white"/>
<path d="M45.0182 41.3088C44.7302 41.5655 44.4202 41.7235 44.0879 41.7828C43.7557 41.8421 43.4245 41.806 43.0944 41.6745C42.7643 41.543 42.4578 41.3186 42.175 41.0014C41.8911 40.6828 41.702 40.3514 41.608 40.007C41.5139 39.6627 41.5154 39.3289 41.6124 39.0056C41.7094 38.6824 41.9018 38.3924 42.1897 38.1358C42.4776 37.8791 42.7877 37.7211 43.1199 37.6618C43.4522 37.6025 43.7839 37.6392 44.1153 37.7721C44.4466 37.9049 44.7542 38.1306 45.0382 38.4492C45.321 38.7664 45.5088 39.0966 45.6017 39.4396C45.6945 39.7826 45.6925 40.1157 45.5955 40.439C45.4985 40.7622 45.3061 41.0522 45.0182 41.3088ZM44.5728 40.8052C44.7594 40.6388 44.8701 40.4517 44.9048 40.2437C44.9395 40.0358 44.9131 39.8237 44.8256 39.6075C44.7394 39.3901 44.6084 39.1827 44.4326 38.9854C44.2579 38.7895 44.0675 38.6363 43.8614 38.5258C43.6554 38.4128 43.4466 38.361 43.2348 38.3703C43.0231 38.3796 42.8239 38.4675 42.6373 38.6338C42.4493 38.8014 42.3379 38.9904 42.3031 39.2008C42.2696 39.4101 42.2965 39.6241 42.3838 39.8429C42.4713 40.0591 42.6024 40.2652 42.7771 40.4611C42.9529 40.6584 43.1432 40.8129 43.348 40.9246C43.5542 41.035 43.7625 41.0849 43.9731 41.0743C44.1849 41.0624 44.3849 40.9727 44.5728 40.8052Z" fill="white"/>
<path d="M58.2966 29.7732C58.5475 30.33 58.6509 30.8484 58.6068 31.3286C58.5619 31.8071 58.3999 32.2278 58.1208 32.5905C57.8409 32.9517 57.4747 33.2343 57.0221 33.4382C56.5663 33.6436 56.11 33.7308 55.6533 33.6996C55.1975 33.666 54.7755 33.5076 54.3874 33.2242C54.0001 32.9385 53.6817 32.5189 53.4322 31.9654C53.1813 31.4086 53.0775 30.8914 53.1207 30.4136C53.1648 29.9334 53.326 29.5131 53.6042 29.1527C53.8834 28.7899 54.2509 28.5058 54.7067 28.3004C55.1593 28.0964 55.6139 28.0101 56.0706 28.0412C56.5265 28.0708 56.949 28.2281 57.3379 28.513C57.7261 28.7964 58.0457 29.2165 58.2966 29.7732ZM56.8998 30.4027C56.7648 30.1032 56.6112 29.8688 56.439 29.6996C56.2677 29.5281 56.0808 29.4243 55.8785 29.3882C55.677 29.3497 55.464 29.3811 55.2393 29.4823C55.0147 29.5835 54.8492 29.7227 54.743 29.8999C54.6377 30.0747 54.5917 30.2834 54.6051 30.5261C54.6194 30.7664 54.694 31.0364 54.829 31.3359C54.964 31.6355 55.1172 31.871 55.2885 32.0425C55.4607 32.2117 55.6475 32.3155 55.849 32.354C56.0513 32.3901 56.2648 32.3576 56.4895 32.2563C56.7141 32.1551 56.8791 32.0171 56.9845 31.8423C57.0907 31.6651 57.1367 31.4564 57.1224 31.2161C57.109 30.9734 57.0348 30.7022 56.8998 30.4027Z" fill="#FF9C06"/>
<path d="M67.4551 26.4658L65.9847 26.8122C65.9456 26.693 65.8918 26.5892 65.8233 26.5008C65.7565 26.4119 65.6756 26.3411 65.5806 26.2883C65.487 26.2333 65.3809 26.1996 65.2624 26.1871C65.1434 26.1729 65.0145 26.1822 64.8754 26.215C64.6321 26.2723 64.4401 26.3799 64.2993 26.5378C64.1603 26.6953 64.0733 26.8947 64.0384 27.1359C64.0053 27.3767 64.0251 27.6517 64.098 27.9611C64.175 28.2879 64.2829 28.5514 64.4218 28.7516C64.562 28.9497 64.7287 29.0848 64.9217 29.1567C65.1144 29.2269 65.328 29.2344 65.5627 29.1791C65.6965 29.1476 65.8125 29.1028 65.9108 29.0448C66.0086 28.9851 66.0891 28.9138 66.1521 28.8311C66.2152 28.7484 66.2604 28.6561 66.2878 28.5542C66.3165 28.4502 66.326 28.3388 66.3164 28.22L67.7892 27.8841C67.8251 28.1141 67.8159 28.3594 67.7617 28.6198C67.707 28.8785 67.6022 29.1306 67.4473 29.3763C67.2937 29.6198 67.0833 29.8363 66.816 30.0258C66.5488 30.2153 66.2197 30.3562 65.8286 30.4483C65.3385 30.5637 64.874 30.5622 64.4351 30.4436C63.998 30.3246 63.6184 30.0875 63.2962 29.7323C62.9758 29.3766 62.746 28.9033 62.6067 28.3124C62.4667 27.718 62.4635 27.1904 62.5971 26.7297C62.7303 26.2672 62.967 25.8858 63.3072 25.5855C63.647 25.2835 64.0568 25.076 64.5365 24.963C64.8736 24.8835 65.1947 24.8565 65.4997 24.8819C65.8047 24.9073 66.085 24.9834 66.3406 25.1104C66.5957 25.2355 66.8187 25.4114 67.0097 25.6379C67.2006 25.8644 67.3491 26.1404 67.4551 26.4658Z" fill="#FF9C06"/>
<path d="M71.4509 25.0627L71.3879 23.8644L76.1489 23.614L76.2119 24.8123L74.5643 24.899L74.7894 29.1786L73.3236 29.2556L73.0985 24.976L71.4509 25.0627Z" fill="#FF9C06"/>
<path d="M79.9257 29.2345L80.5805 23.7883L82.9313 24.0709C83.3355 24.1195 83.6796 24.2418 83.9636 24.4378C84.2476 24.6338 84.4564 24.8864 84.5901 25.1956C84.7237 25.5049 84.7674 25.8527 84.7209 26.2392C84.674 26.6292 84.5465 26.9565 84.3385 27.2211C84.1322 27.4858 83.8638 27.6766 83.5332 27.7933C83.2044 27.9102 82.8326 27.9438 82.4177 27.8939L81.0136 27.7251L81.1517 26.5763L82.258 26.7093C82.4317 26.7302 82.5834 26.7178 82.713 26.6722C82.8445 26.6251 82.9499 26.5488 83.0292 26.4432C83.1102 26.3378 83.16 26.208 83.1785 26.0538C83.1973 25.8978 83.1796 25.7608 83.1254 25.6427C83.0732 25.5232 82.9886 25.4267 82.8715 25.3532C82.7565 25.2783 82.6121 25.2303 82.4383 25.2094L81.9171 25.1468L81.4043 29.4123L79.9257 29.2345Z" fill="#FF9C06"/>
<path d="M87.9219 30.5374L89.4653 25.2735L90.8943 25.6925L89.6886 29.8049L91.8167 30.4289L91.4791 31.5804L87.9219 30.5374Z" fill="#FF9C06"/>
<path d="M100.349 29.412L101.685 30.0696L100.133 33.2225C99.9485 33.5974 99.6991 33.8777 99.3849 34.0633C99.073 34.2481 98.721 34.3366 98.3288 34.3286C97.9375 34.3191 97.5311 34.2106 97.1098 34.0033C96.6852 33.7943 96.3498 33.5377 96.1035 33.2333C95.8581 32.9274 95.7134 32.5945 95.6696 32.2346C95.6283 31.8739 95.6998 31.5062 95.8843 31.1313L97.4362 27.9784L98.7723 28.636L97.2773 31.6736C97.2023 31.8258 97.169 31.9785 97.1771 32.1318C97.186 32.2835 97.2332 32.4221 97.3187 32.5477C97.4057 32.6742 97.5253 32.7748 97.6775 32.8498C97.8313 32.9255 97.984 32.9588 98.1357 32.9499C98.2874 32.941 98.4261 32.8938 98.5517 32.8084C98.6781 32.7213 98.7788 32.6017 98.8537 32.4495L100.349 29.412Z" fill="#FF9C06"/>
<path d="M107.293 35.8015C107.388 35.6494 107.416 35.4976 107.38 35.3461C107.344 35.1956 107.23 35.0488 107.036 34.9056C106.912 34.8143 106.8 34.7546 106.699 34.7264C106.6 34.6979 106.513 34.6949 106.439 34.7176C106.364 34.7403 106.302 34.7834 106.253 34.847C106.211 34.898 106.185 34.953 106.175 35.012C106.167 35.0707 106.175 35.1352 106.198 35.2058C106.222 35.2749 106.263 35.3512 106.319 35.4347C106.375 35.5182 106.447 35.6095 106.536 35.7085L106.841 36.0534C107.047 36.2855 107.205 36.508 107.316 36.7212C107.428 36.9343 107.496 37.1391 107.522 37.3357C107.548 37.5309 107.535 37.7186 107.482 37.899C107.43 38.0805 107.343 38.2558 107.22 38.4249C107.004 38.7139 106.75 38.906 106.458 39.0009C106.166 39.0959 105.848 39.0972 105.503 39.0047C105.16 38.9133 104.802 38.7297 104.428 38.4538C104.045 38.1705 103.752 37.8666 103.55 37.542C103.349 37.2185 103.257 36.8806 103.273 36.5284C103.292 36.1757 103.436 35.8143 103.708 35.4441L104.845 36.2844C104.753 36.4247 104.703 36.5631 104.695 36.6996C104.687 36.8361 104.721 36.9683 104.795 37.0963C104.87 37.2254 104.984 37.3462 105.137 37.4587C105.264 37.5531 105.383 37.6163 105.493 37.6484C105.602 37.6804 105.7 37.6849 105.786 37.6618C105.872 37.6386 105.942 37.5917 105.996 37.521C106.045 37.4524 106.066 37.3771 106.06 37.295C106.057 37.2125 106.022 37.1156 105.955 37.0043C105.89 36.8916 105.788 36.7568 105.651 36.5999L105.282 36.1805C104.953 35.8072 104.75 35.4381 104.671 35.0734C104.594 34.7082 104.684 34.3538 104.94 34.0102C105.145 33.729 105.401 33.5393 105.707 33.441C106.015 33.3423 106.347 33.3333 106.702 33.4139C107.059 33.4956 107.412 33.6653 107.761 33.9231C108.118 34.1863 108.382 34.4734 108.554 34.7847C108.725 35.0959 108.802 35.4119 108.782 35.7328C108.765 36.0533 108.651 36.3584 108.439 36.6481L107.293 35.8015Z" fill="#FF9C06"/>
<path d="M72.3346 70.5104C72.3346 70.5104 71.2465 67.4225 71.2465 66.3629C71.2465 65.3033 71.5712 63.8163 72.1865 63.0814C72.8018 62.3465 74.0665 61.2356 75.1432 61.0647C76.22 60.8938 77.5189 60.8596 78.476 61.2185C79.4331 61.5774 80.3389 62.261 80.6637 62.62C80.9884 62.9789 81.6549 63.9018 81.8088 64.9956C81.9626 66.0894 81.8088 67.7986 80.7149 69.7811C80.7149 69.7811 81.4669 69.3197 81.9968 67.4909C82.048 67.1662 81.9455 67.1149 81.9968 67.1405C82.048 67.1662 82.8 68.1147 82.9709 68.542C83.1419 68.9693 83.347 69.3653 83.3014 69.7811C83.2558 70.197 82.9368 71.4505 82.0822 72.3734C81.2277 73.2963 81.3189 73.6723 81.3189 73.7977C81.3189 73.923 80.8175 73.5584 80.658 73.1938C80.4985 72.8292 80.3959 71.8379 80.3959 71.8379L80.3845 71.7468L80.3162 71.8266C80.3162 71.8266 80.0769 72.6014 80.225 73.0115C80.3731 73.4217 80.977 74.3781 81.8658 74.982C82.7545 75.5859 84.042 76.3721 84.5662 76.8051C85.0903 77.2381 86.6969 78.7188 86.902 80.0405C87.1071 81.3622 87.278 82.3603 86.902 83.3174C86.5259 84.2745 85.9277 85.3169 85.3979 86.0006C84.8681 86.6842 83.347 88.3933 83.1931 88.5984C83.0393 88.8035 82.0993 90.2904 82.1677 91.0424C82.1762 91.2646 82.1762 91.2646 82.1762 91.2646C82.1762 91.2646 81.5609 90.581 81.6122 89.735C81.6635 88.889 82.0651 87.6413 82.8684 86.462C83.6717 85.2827 84.2186 84.8726 84.5433 84.0864C84.8681 83.3002 85.1073 82.7703 84.851 81.8474C84.5946 80.9245 84.4579 80.0358 83.0564 78.9078C81.6549 77.7797 80.8004 77.1645 80.3218 76.9594C79.8433 76.7543 80.0826 76.9081 80.0826 76.9081C80.0826 76.9081 81.0738 78.1045 81.2618 78.3779C81.4498 78.6514 82.6291 80.4289 82.7146 81.3518C82.8 82.2747 82.8342 83.2831 81.9797 84.5991C81.1251 85.9151 79.0913 88.6839 79.0058 89.2821C78.9204 89.8802 78.6127 90.6835 78.852 91.4013C79.0913 92.1192 77.724 90.7348 77.8436 89.453C77.9633 88.1711 78.3051 87.0944 79.2964 85.4707C80.2876 83.8471 80.5611 83.4882 80.4244 82.2918C80.0826 81.1125 79.0571 78.2925 75.7756 78.8736C73.4512 79.5572 72.7676 81.574 72.7847 82.0354C72.7847 82.3773 72.6821 83.078 72.8018 83.4711C72.9214 83.8642 73.4512 84.8555 73.6221 85.0947C73.793 85.334 74.6134 86.7697 74.6476 86.838C74.6818 86.9064 75.2458 88.4617 75.2458 88.6497C75.2458 88.8377 75.3996 90.4101 74.8014 91.0424C74.2032 91.6748 74.2032 91.6748 74.2032 91.6748C74.2032 91.6748 74.528 90.7006 74.2887 89.9144C74.0494 89.1282 73.5196 88.1369 73.3829 88.0002C73.2461 87.8635 71.3661 84.8896 71.3661 84.8896C71.3661 84.8896 70.0501 83.078 70.3577 81.8474C70.6654 80.6169 70.597 80.3434 71.4516 79.0616C72.3061 77.7797 73.1265 76.9252 73.1265 76.9252C73.1265 76.9252 71.0243 77.8139 69.9817 78.9761C68.9392 80.1383 68.0333 81.6423 68.2043 82.5482C68.3752 83.454 68.4435 84.1205 69.2981 85.2144C70.1526 86.3082 71.0585 87.5388 71.2465 88.3762C71.4345 89.2137 71.7421 90.2733 71.1097 91.1108C71.0243 91.2646 71.0414 90.5297 70.8534 90.205C70.6654 89.8802 70.1355 88.701 68.717 87.2482C67.2984 85.7955 65.5893 83.3344 66.0508 81.1809C66.5122 79.0274 66.8256 77.8766 69.3779 76.213C71.9301 74.5495 73.0695 73.7975 72.9784 72.4302C72.7961 71.7922 72.7961 71.7922 72.7961 71.7922C72.7961 71.7922 72.8188 72.7721 72.3859 73.2962C71.9529 73.8204 71.9529 73.8204 71.9529 73.8204C71.9529 73.8204 71.8162 73.4329 71.2009 72.5442C70.5857 71.6555 69.7197 70.2653 69.8792 69.4906C70.0387 68.7158 71.0641 67.1434 71.0641 67.1434C71.0641 67.1434 71.2721 68.1233 71.4857 68.4566C71.6994 68.7898 72.2121 69.6786 72.2121 69.6786L72.3346 70.5104Z" fill="#1B91FF"/>
</svg>
