<svg width="67" height="97" viewBox="0 0 67 97" fill="none" xmlns="http://www.w3.org/2000/svg">
<path d="M19.963 30.0355C19.963 30.0355 16.5478 20.3445 16.5478 17.0188C16.5478 13.6931 17.567 9.02637 19.498 6.71984C21.4291 4.41331 25.3984 0.926689 28.7778 0.390287C32.1571 -0.146116 36.2338 -0.253397 39.2376 0.873049C42.2415 1.99949 45.0844 4.14511 46.1036 5.27155C47.1227 6.398 49.2147 9.29457 49.6975 12.7275C50.1802 16.1605 49.6975 21.5246 46.2645 27.7468C46.2645 27.7468 48.6247 26.2985 50.2875 20.559C50.4484 19.5399 50.1266 19.3789 50.2875 19.4594C50.4484 19.5399 52.8086 22.5169 53.345 23.8579C53.8814 25.1989 54.5253 26.4416 54.3822 27.7468C54.2391 29.052 53.2377 32.9862 50.5557 35.8828C47.8737 38.7793 48.1599 39.9594 48.1599 40.3527C48.1599 40.746 46.5863 39.6017 46.0858 38.4575C45.5852 37.3132 45.2633 34.2021 45.2633 34.2021L45.2275 33.9161L45.0129 34.1665C45.0129 34.1665 44.2622 36.5981 44.7269 37.8855C45.1917 39.1728 47.0871 42.1743 49.8764 44.0698C52.6657 45.9652 56.7065 48.4324 58.3516 49.7915C59.9966 51.1505 65.0388 55.7977 65.6825 59.9458C66.3261 64.0939 66.8628 67.2265 65.6825 70.2303C64.5022 73.2342 62.6248 76.5058 60.9619 78.6514C59.2991 80.797 54.5251 86.1611 54.0423 86.8048C53.5596 87.4484 50.6093 92.1151 50.8239 94.4753C50.8507 95.1726 50.8507 95.1726 50.8507 95.1726C50.8507 95.1726 48.9197 93.027 49.0806 90.3718C49.2415 87.7166 50.5021 83.8009 53.0232 80.0997C55.5442 76.3985 57.2607 75.1112 58.2799 72.6437C59.2991 70.1763 60.05 68.5134 59.2454 65.6169C58.4408 62.7203 58.0117 59.931 53.6132 56.3907C49.2147 52.8505 46.5327 50.9194 45.0308 50.2757C43.5288 49.632 44.2798 50.1148 44.2798 50.1148C44.2798 50.1148 47.3909 53.8696 47.981 54.7279C48.571 55.5861 52.2722 61.1647 52.5404 64.0613C52.8086 66.9579 52.9159 70.1226 50.2339 74.2529C47.5518 78.3832 41.1687 87.073 40.9005 88.9504C40.6323 90.8278 39.6667 93.3489 40.4177 95.6018C41.1687 97.8546 36.8774 93.5098 37.2529 89.4868C37.6284 85.4637 38.7012 82.0844 41.8123 76.9886C44.9235 71.8928 45.7817 70.7663 45.3526 67.0115C44.2798 63.3103 41.0614 54.4597 30.7625 56.2834C23.4674 58.4291 21.3218 64.7586 21.3754 66.2069C21.3754 67.2797 21.0536 69.479 21.4291 70.7127C21.8045 71.9464 23.4674 75.0575 24.0038 75.8085C24.5402 76.5595 27.1149 81.0652 27.2222 81.2798C27.3295 81.4944 29.0996 86.3756 29.0996 86.9657C29.0996 87.5557 29.5824 92.4906 27.705 94.4753C25.8276 96.46 25.8276 96.46 25.8276 96.46C25.8276 96.46 26.8467 93.4025 26.0958 90.9351C25.3448 88.4676 23.6819 85.3565 23.2528 84.9273C22.8237 84.4982 16.9233 75.1648 16.9233 75.1648C16.9233 75.1648 12.793 69.479 13.7585 65.6169C14.724 61.7547 14.5095 60.8965 17.1915 56.8735C19.8735 52.8505 22.4482 50.1685 22.4482 50.1685C22.4482 50.1685 15.8505 52.9577 12.5784 56.6053C9.30636 60.2528 6.46343 64.9732 6.99983 67.8161C7.53623 70.659 7.75079 72.751 10.4328 76.184C13.1148 79.617 15.9578 83.4791 16.5478 86.1074C17.1378 88.7358 18.1034 92.0615 16.1187 94.6899C15.8505 95.1726 15.9041 92.8661 15.3141 91.8469C14.724 90.8278 13.0612 87.1266 8.60904 82.5672C4.1569 78.0078 -1.20712 70.2836 0.241162 63.5249C1.68945 56.7662 2.67299 53.1545 10.6832 47.9334C18.6934 42.7122 22.2695 40.3523 21.9835 36.0611C21.4112 34.0586 21.4112 34.0586 21.4112 34.0586C21.4112 34.0586 21.4827 37.1339 20.1239 38.7789C18.7651 40.4239 18.7651 40.424 18.7651 40.424C18.7651 40.424 18.3359 39.208 16.4049 36.4187C14.4739 33.6294 11.756 29.2666 12.2566 26.8349C12.7571 24.4033 15.9756 19.4684 15.9756 19.4684C15.9756 19.4684 16.6283 22.5437 17.2988 23.5897C17.9693 24.6357 19.5785 27.425 19.5785 27.425L19.963 30.0355Z" fill="#148DFD"/>
</svg>
